<svg xmlns="http://www.w3.org/2000/svg" viewBox="0 0 720 400"><defs><linearGradient id="sky" x2="0" y2="1"><stop stop-color="#456b73"/><stop offset="1" stop-color="#afbea1"/></linearGradient><linearGradient id="clay" x2="1" y2=".6"><stop stop-color="#efb978"/><stop offset=".55" stop-color="#c78050"/><stop offset="1" stop-color="#915039"/></linearGradient><radialGradient id="light"><stop stop-color="#fce8b2" stop-opacity=".28"/><stop offset="1" stop-color="#fce8b2" stop-opacity="0"/></radialGradient></defs><path fill="url(#sky)" d="M0 0h720v400H0z"/><circle cx="582" cy="76" r="38" fill="#f0d8a1" opacity=".65"/><path d="M0 207Q143 126 291 200T720 178V400H0z" fill="#768e78"/><path d="M0 261Q217 208 423 268T720 226V400H0z" fill="#a0a17b"/><path d="M0 338Q277 275 720 334V400H0z" fill="#c0ac80"/><path d="M0 0h720v370L595 335 530 280 442 274 361 346 174 370 0 320z" fill="#89634b"/><path d="M45 52l230-35 100 70 256-26 45 182-235 67-199-31-180 32z" fill="#b98b62"/><g stroke="#7b382b" stroke-width="9" fill="none" stroke-linecap="round"><path d="M190 210l68-30 91 16 38-17 27 20-27 8-34 30-90-15-57 25m45-29-3 47m68-30 10 38m-76-89-22-18"/><path d="M492 158v-62m16 65 10-65m6 69 19-49m-59 46-12-50m16 63-22-22"/></g><circle cx="503" cy="173" r="25" fill="#7b382b"/><g fill="#d8ae7b" opacity=".6"><circle cx="150" cy="108" r="3"/><circle cx="429" cy="232" r="4"/><circle cx="579" cy="218" r="3"/></g><ellipse cx="255" cy="95" rx="330" ry="210" fill="url(#light)"/><path d="M18 18h684v364H18z" fill="none" stroke="#ffe1a9" stroke-opacity=".28"/><path d="M28 40V28h24M668 28h24v12M28 360v12h24M668 372h24v-12" fill="none" stroke="#f6d599" stroke-width="2"/></svg>